<?xml version="1.0" standalone="no"?>
<!DOCTYPE svg PUBLIC "-//W3C//DTD SVG 20010904//EN"
 "http://www.w3.org/TR/2001/REC-SVG-20010904/DTD/svg10.dtd">
<svg version="1.0" xmlns="http://www.w3.org/2000/svg"
 width="142.000000pt" height="142.000000pt" viewBox="0 0 142.000000 142.000000"
 preserveAspectRatio="xMidYMid meet">
<metadata>
Created by potrace 1.14, written by Peter Selinger 2001-2017
</metadata>
<g transform="translate(0.000000,142.000000) scale(0.100000,-0.100000)"
fill="#000000" stroke="none">
<path d="M535 1396 c-333 -94 -539 -369 -530 -708 5 -192 71 -347 204 -478 87
-86 171 -138 286 -177 72 -25 94 -27 215 -27 120 0 144 3 215 27 159 53 298
159 379 291 44 69 81 153 90 198 2 13 9 43 14 66 15 63 7 237 -13 306 -71 242
-230 407 -471 491 -112 39 -274 43 -389 11z"/>
</g>
</svg>
